<svg xmlns="http://www.w3.org/2000/svg" xmlns:xlink="http://www.w3.org/1999/xlink" contentStyleType="text/css" data-diagram-type="SEQUENCE" height="2262px" preserveAspectRatio="none" style="width:928px;height:2262px;background:#FFFFFF;" version="1.1" viewBox="0 0 928 2262" width="928px" zoomAndPan="magnify"><defs/><g><line style="stroke:#181818;stroke-width:0.5;stroke-dasharray:5.0,5.0;" x1="28" x2="28" y1="81.2969" y2="2181.4609"/><line style="stroke:#181818;stroke-width:0.5;stroke-dasharray:5.0,5.0;" x1="314.6641" x2="314.6641" y1="81.2969" y2="2181.4609"/><line style="stroke:#181818;stroke-width:0.5;stroke-dasharray:5.0,5.0;" x1="455.2056" x2="455.2056" y1="81.2969" y2="2181.4609"/><line style="stroke:#181818;stroke-width:0.5;stroke-dasharray:5.0,5.0;" x1="668.1304" x2="668.1304" y1="81.2969" y2="2181.4609"/><line style="stroke:#181818;stroke-width:0.5;stroke-dasharray:5.0,5.0;" x1="875.5479" x2="875.5479" y1="81.2969" y2="2181.4609"/><text fill="#000000" font-family="sans-serif" font-size="14" lengthAdjust="spacing" textLength="40.5303" x="5" y="77.9951">Client</text><ellipse cx="28.2651" cy="13.5" fill="#E2E2F0" rx="8" ry="8" style="stroke:#181818;stroke-width:0.5;"/><path d="M28.2651,21.5 L28.2651,48.5 M15.2651,29.5 L41.2651,29.5 M28.2651,48.5 L15.2651,63.5 M28.2651,48.5 L41.2651,63.5 " fill="none" style="stroke:#181818;stroke-width:0.5;"/><text fill="#000000" font-family="sans-serif" font-size="14" lengthAdjust="spacing" textLength="40.5303" x="5" y="2193.4561">Client</text><ellipse cx="28.2651" cy="2205.2578" fill="#E2E2F0" rx="8" ry="8" style="stroke:#181818;stroke-width:0.5;"/><path d="M28.2651,2213.2578 L28.2651,2240.2578 M15.2651,2221.2578 L41.2651,2221.2578 M28.2651,2240.2578 L15.2651,2255.2578 M28.2651,2240.2578 L41.2651,2255.2578 " fill="none" style="stroke:#181818;stroke-width:0.5;"/><rect fill="#E2E2F0" height="30.2969" rx="2.5" ry="2.5" style="stroke:#181818;stroke-width:0.5;" width="100.7754" x="264.6641" y="50"/><text fill="#000000" font-family="sans-serif" font-size="14" lengthAdjust="spacing" textLength="86.7754" x="271.6641" y="69.9951">Express App</text><rect fill="#E2E2F0" height="30.2969" rx="2.5" ry="2.5" style="stroke:#181818;stroke-width:0.5;" width="100.7754" x="264.6641" y="2180.4609"/><text fill="#000000" font-family="sans-serif" font-size="14" lengthAdjust="spacing" textLength="86.7754" x="271.6641" y="2200.4561">Express App</text><rect fill="#E2E2F0" height="30.2969" rx="2.5" ry="2.5" style="stroke:#181818;stroke-width:0.5;" width="62.5625" x="424.2056" y="50"/><text fill="#000000" font-family="sans-serif" font-size="14" lengthAdjust="spacing" textLength="48.5625" x="431.2056" y="69.9951">Routes</text><rect fill="#E2E2F0" height="30.2969" rx="2.5" ry="2.5" style="stroke:#181818;stroke-width:0.5;" width="62.5625" x="424.2056" y="2180.4609"/><text fill="#000000" font-family="sans-serif" font-size="14" lengthAdjust="spacing" textLength="48.5625" x="431.2056" y="2200.4561">Routes</text><rect fill="#E2E2F0" height="30.2969" rx="2.5" ry="2.5" style="stroke:#181818;stroke-width:0.5;" width="83.1729" x="627.1304" y="50"/><text fill="#000000" font-family="sans-serif" font-size="14" lengthAdjust="spacing" textLength="69.1729" x="634.1304" y="69.9951">Controller</text><rect fill="#E2E2F0" height="30.2969" rx="2.5" ry="2.5" style="stroke:#181818;stroke-width:0.5;" width="83.1729" x="627.1304" y="2180.4609"/><text fill="#000000" font-family="sans-serif" font-size="14" lengthAdjust="spacing" textLength="69.1729" x="634.1304" y="2200.4561">Controller</text><rect fill="#E2E2F0" height="30.2969" rx="2.5" ry="2.5" style="stroke:#181818;stroke-width:0.5;" width="80.8008" x="835.5479" y="50"/><text fill="#000000" font-family="sans-serif" font-size="14" lengthAdjust="spacing" textLength="66.8008" x="842.5479" y="69.9951">Database</text><rect fill="#E2E2F0" height="30.2969" rx="2.5" ry="2.5" style="stroke:#181818;stroke-width:0.5;" width="80.8008" x="835.5479" y="2180.4609"/><text fill="#000000" font-family="sans-serif" font-size="14" lengthAdjust="spacing" textLength="66.8008" x="842.5479" y="2200.4561">Database</text><rect fill="#EEEEEE" height="3" style="stroke:#EEEEEE;stroke-width:1;" width="921.3486" x="0" y="111.8633"/><line style="stroke:#000000;stroke-width:1;" x1="0" x2="921.3486" y1="111.8633" y2="111.8633"/><line style="stroke:#000000;stroke-width:1;" x1="0" x2="921.3486" y1="114.8633" y2="114.8633"/><rect fill="#EEEEEE" height="23.1328" style="stroke:#000000;stroke-width:2;" width="165.436" x="377.9563" y="101.2969"/><text fill="#000000" font-family="sans-serif" font-size="13" font-weight="bold" lengthAdjust="spacing" textLength="146.9102" x="383.9563" y="117.3638">User Authentication</text><polygon fill="#181818" points="303.0518,151.5625,313.0518,155.5625,303.0518,159.5625,307.0518,155.5625" style="stroke:#181818;stroke-width:1;"/><line style="stroke:#181818;stroke-width:1;" x1="28.2651" x2="309.0518" y1="155.5625" y2="155.5625"/><text fill="#000000" font-family="sans-serif" font-size="13" lengthAdjust="spacing" textLength="108.3672" x="35.2651" y="150.4966">POST /auth/login</text><polygon fill="#181818" points="443.4868,180.6953,453.4868,184.6953,443.4868,188.6953,447.4868,184.6953" style="stroke:#181818;stroke-width:1;"/><line style="stroke:#181818;stroke-width:1;" x1="315.0518" x2="449.4868" y1="184.6953" y2="184.6953"/><text fill="#000000" font-family="sans-serif" font-size="13" lengthAdjust="spacing" textLength="106.8057" x="322.0518" y="179.6294">Forward request</text><polygon fill="#181818" points="656.7168,209.8281,666.7168,213.8281,656.7168,217.8281,660.7168,213.8281" style="stroke:#181818;stroke-width:1;"/><line style="stroke:#181818;stroke-width:1;" x1="455.4868" x2="662.7168" y1="213.8281" y2="213.8281"/><text fill="#000000" font-family="sans-serif" font-size="13" lengthAdjust="spacing" textLength="41.812" x="462.4868" y="208.7622">login()</text><polygon fill="#181818" points="863.9482,238.9609,873.9482,242.9609,863.9482,246.9609,867.9482,242.9609" style="stroke:#181818;stroke-width:1;"/><line style="stroke:#181818;stroke-width:1;" x1="668.7168" x2="869.9482" y1="242.9609" y2="242.9609"/><text fill="#000000" font-family="sans-serif" font-size="13" lengthAdjust="spacing" textLength="162.0557" x="675.7168" y="237.895">Validate user credentials</text><polygon fill="#181818" points="679.7168,268.0938,669.7168,272.0938,679.7168,276.0938,675.7168,272.0938" style="stroke:#181818;stroke-width:1;"/><line style="stroke:#181818;stroke-width:1;stroke-dasharray:2.0,2.0;" x1="673.7168" x2="874.9482" y1="272.0938" y2="272.0938"/><text fill="#000000" font-family="sans-serif" font-size="13" lengthAdjust="spacing" textLength="116.5938" x="685.7168" y="267.0278">User data or error</text><polygon fill="#181818" points="466.4868,297.2266,456.4868,301.2266,466.4868,305.2266,462.4868,301.2266" style="stroke:#181818;stroke-width:1;"/><line style="stroke:#181818;stroke-width:1;stroke-dasharray:2.0,2.0;" x1="460.4868" x2="667.7168" y1="301.2266" y2="301.2266"/><text fill="#000000" font-family="sans-serif" font-size="13" lengthAdjust="spacing" textLength="189.23" x="472.4868" y="296.1606">Response with token or error</text><polygon fill="#181818" points="326.0518,326.3594,316.0518,330.3594,326.0518,334.3594,322.0518,330.3594" style="stroke:#181818;stroke-width:1;"/><line style="stroke:#181818;stroke-width:1;stroke-dasharray:2.0,2.0;" x1="320.0518" x2="454.4868" y1="330.3594" y2="330.3594"/><text fill="#000000" font-family="sans-serif" font-size="13" lengthAdjust="spacing" textLength="116.4351" x="332.0518" y="325.2935">Forward response</text><polygon fill="#181818" points="39.2651,355.4922,29.2651,359.4922,39.2651,363.4922,35.2651,359.4922" style="stroke:#181818;stroke-width:1;"/><line style="stroke:#181818;stroke-width:1;stroke-dasharray:2.0,2.0;" x1="33.2651" x2="314.0518" y1="359.4922" y2="359.4922"/><text fill="#000000" font-family="sans-serif" font-size="13" lengthAdjust="spacing" textLength="262.7866" x="45.2651" y="354.4263">Response (200 OK or 401 Unauthorized)</text><rect fill="#EEEEEE" height="3" style="stroke:#EEEEEE;stroke-width:1;" width="921.3486" x="0" y="388.0586"/><line style="stroke:#000000;stroke-width:1;" x1="0" x2="921.3486" y1="388.0586" y2="388.0586"/><line style="stroke:#000000;stroke-width:1;" x1="0" x2="921.3486" y1="391.0586" y2="391.0586"/><rect fill="#EEEEEE" height="23.1328" style="stroke:#000000;stroke-width:2;" width="180.1055" x="370.6216" y="377.4922"/><text fill="#000000" font-family="sans-serif" font-size="13" font-weight="bold" lengthAdjust="spacing" textLength="161.5796" x="376.6216" y="393.5591">Settings Management</text><polygon fill="#181818" points="303.0518,427.7578,313.0518,431.7578,303.0518,435.7578,307.0518,431.7578" style="stroke:#181818;stroke-width:1;"/><line style="stroke:#181818;stroke-width:1;" x1="28.2651" x2="309.0518" y1="431.7578" y2="431.7578"/><text fill="#000000" font-family="sans-serif" font-size="13" lengthAdjust="spacing" textLength="165.6294" x="35.2651" y="426.6919">GET /settings/getSettings</text><polygon fill="#181818" points="443.4868,456.8906,453.4868,460.8906,443.4868,464.8906,447.4868,460.8906" style="stroke:#181818;stroke-width:1;"/><line style="stroke:#181818;stroke-width:1;" x1="315.0518" x2="449.4868" y1="460.8906" y2="460.8906"/><text fill="#000000" font-family="sans-serif" font-size="13" lengthAdjust="spacing" textLength="106.8057" x="322.0518" y="455.8247">Forward request</text><polygon fill="#181818" points="656.7168,486.0234,666.7168,490.0234,656.7168,494.0234,660.7168,490.0234" style="stroke:#181818;stroke-width:1;"/><line style="stroke:#181818;stroke-width:1;" x1="455.4868" x2="662.7168" y1="490.0234" y2="490.0234"/><text fill="#000000" font-family="sans-serif" font-size="13" lengthAdjust="spacing" textLength="84.811" x="462.4868" y="484.9575">getSettings()</text><polygon fill="#181818" points="863.9482,515.1563,873.9482,519.1563,863.9482,523.1563,867.9482,519.1563" style="stroke:#181818;stroke-width:1;"/><line style="stroke:#181818;stroke-width:1;" x1="668.7168" x2="869.9482" y1="519.1563" y2="519.1563"/><text fill="#000000" font-family="sans-serif" font-size="13" lengthAdjust="spacing" textLength="110.7476" x="675.7168" y="514.0903">Retrieve settings</text><polygon fill="#181818" points="679.7168,544.2891,669.7168,548.2891,679.7168,552.2891,675.7168,548.2891" style="stroke:#181818;stroke-width:1;"/><line style="stroke:#181818;stroke-width:1;stroke-dasharray:2.0,2.0;" x1="673.7168" x2="874.9482" y1="548.2891" y2="548.2891"/><text fill="#000000" font-family="sans-serif" font-size="13" lengthAdjust="spacing" textLength="86.7344" x="685.7168" y="543.2231">Settings data</text><polygon fill="#181818" points="466.4868,573.4219,456.4868,577.4219,466.4868,581.4219,462.4868,577.4219" style="stroke:#181818;stroke-width:1;"/><line style="stroke:#181818;stroke-width:1;stroke-dasharray:2.0,2.0;" x1="460.4868" x2="667.7168" y1="577.4219" y2="577.4219"/><text fill="#000000" font-family="sans-serif" font-size="13" lengthAdjust="spacing" textLength="150.7061" x="472.4868" y="572.356">Response with settings</text><polygon fill="#181818" points="326.0518,602.5547,316.0518,606.5547,326.0518,610.5547,322.0518,606.5547" style="stroke:#181818;stroke-width:1;"/><line style="stroke:#181818;stroke-width:1;stroke-dasharray:2.0,2.0;" x1="320.0518" x2="454.4868" y1="606.5547" y2="606.5547"/><text fill="#000000" font-family="sans-serif" font-size="13" lengthAdjust="spacing" textLength="116.4351" x="332.0518" y="601.4888">Forward response</text><polygon fill="#181818" points="39.2651,631.6875,29.2651,635.6875,39.2651,639.6875,35.2651,635.6875" style="stroke:#181818;stroke-width:1;"/><line style="stroke:#181818;stroke-width:1;stroke-dasharray:2.0,2.0;" x1="33.2651" x2="314.0518" y1="635.6875" y2="635.6875"/><text fill="#000000" font-family="sans-serif" font-size="13" lengthAdjust="spacing" textLength="124.998" x="45.2651" y="630.6216">Response (200 OK)</text><polygon fill="#181818" points="303.0518,660.8203,313.0518,664.8203,303.0518,668.8203,307.0518,664.8203" style="stroke:#181818;stroke-width:1;"/><line style="stroke:#181818;stroke-width:1;" x1="28.2651" x2="309.0518" y1="664.8203" y2="664.8203"/><text fill="#000000" font-family="sans-serif" font-size="13" lengthAdjust="spacing" textLength="176.7886" x="35.2651" y="659.7544">POST /settings/addSettings</text><polygon fill="#181818" points="443.4868,689.9531,453.4868,693.9531,443.4868,697.9531,447.4868,693.9531" style="stroke:#181818;stroke-width:1;"/><line style="stroke:#181818;stroke-width:1;" x1="315.0518" x2="449.4868" y1="693.9531" y2="693.9531"/><text fill="#000000" font-family="sans-serif" font-size="13" lengthAdjust="spacing" textLength="106.8057" x="322.0518" y="688.8872">Forward request</text><polygon fill="#181818" points="656.7168,719.0859,666.7168,723.0859,656.7168,727.0859,660.7168,723.0859" style="stroke:#181818;stroke-width:1;"/><line style="stroke:#181818;stroke-width:1;" x1="455.4868" x2="662.7168" y1="723.0859" y2="723.0859"/><text fill="#000000" font-family="sans-serif" font-size="13" lengthAdjust="spacing" textLength="87.9341" x="462.4868" y="718.02">addSettings()</text><polygon fill="#181818" points="863.9482,748.2188,873.9482,752.2188,863.9482,756.2188,867.9482,752.2188" style="stroke:#181818;stroke-width:1;"/><line style="stroke:#181818;stroke-width:1;" x1="668.7168" x2="869.9482" y1="752.2188" y2="752.2188"/><text fill="#000000" font-family="sans-serif" font-size="13" lengthAdjust="spacing" textLength="87.8833" x="675.7168" y="747.1528">Save settings</text><polygon fill="#181818" points="679.7168,777.3516,669.7168,781.3516,679.7168,785.3516,675.7168,781.3516" style="stroke:#181818;stroke-width:1;"/><line style="stroke:#181818;stroke-width:1;stroke-dasharray:2.0,2.0;" x1="673.7168" x2="874.9482" y1="781.3516" y2="781.3516"/><text fill="#000000" font-family="sans-serif" font-size="13" lengthAdjust="spacing" textLength="84.335" x="685.7168" y="776.2856">Confirmation</text><polygon fill="#181818" points="466.4868,806.4844,456.4868,810.4844,466.4868,814.4844,462.4868,810.4844" style="stroke:#181818;stroke-width:1;"/><line style="stroke:#181818;stroke-width:1;stroke-dasharray:2.0,2.0;" x1="460.4868" x2="667.7168" y1="810.4844" y2="810.4844"/><text fill="#000000" font-family="sans-serif" font-size="13" lengthAdjust="spacing" textLength="157.9741" x="472.4868" y="805.4185">Response (201 Created)</text><polygon fill="#181818" points="326.0518,835.6172,316.0518,839.6172,326.0518,843.6172,322.0518,839.6172" style="stroke:#181818;stroke-width:1;"/><line style="stroke:#181818;stroke-width:1;stroke-dasharray:2.0,2.0;" x1="320.0518" x2="454.4868" y1="839.6172" y2="839.6172"/><text fill="#000000" font-family="sans-serif" font-size="13" lengthAdjust="spacing" textLength="116.4351" x="332.0518" y="834.5513">Forward response</text><polygon fill="#181818" points="39.2651,864.75,29.2651,868.75,39.2651,872.75,35.2651,868.75" style="stroke:#181818;stroke-width:1;"/><line style="stroke:#181818;stroke-width:1;stroke-dasharray:2.0,2.0;" x1="33.2651" x2="314.0518" y1="868.75" y2="868.75"/><text fill="#000000" font-family="sans-serif" font-size="13" lengthAdjust="spacing" textLength="157.9741" x="45.2651" y="863.6841">Response (201 Created)</text><rect fill="#EEEEEE" height="3" style="stroke:#EEEEEE;stroke-width:1;" width="921.3486" x="0" y="897.3164"/><line style="stroke:#000000;stroke-width:1;" x1="0" x2="921.3486" y1="897.3164" y2="897.3164"/><line style="stroke:#000000;stroke-width:1;" x1="0" x2="921.3486" y1="900.3164" y2="900.3164"/><rect fill="#EEEEEE" height="23.1328" style="stroke:#000000;stroke-width:2;" width="102.0166" x="409.666" y="886.75"/><text fill="#000000" font-family="sans-serif" font-size="13" font-weight="bold" lengthAdjust="spacing" textLength="83.4907" x="415.666" y="902.8169">Graph Data</text><polygon fill="#181818" points="303.0518,937.0156,313.0518,941.0156,303.0518,945.0156,307.0518,941.0156" style="stroke:#181818;stroke-width:1;"/><line style="stroke:#181818;stroke-width:1;" x1="28.2651" x2="309.0518" y1="941.0156" y2="941.0156"/><text fill="#000000" font-family="sans-serif" font-size="13" lengthAdjust="spacing" textLength="223.7295" x="35.2651" y="935.9497">GET /graph/getGraphData/:unit_ID</text><polygon fill="#181818" points="443.4868,966.1484,453.4868,970.1484,443.4868,974.1484,447.4868,970.1484" style="stroke:#181818;stroke-width:1;"/><line style="stroke:#181818;stroke-width:1;" x1="315.0518" x2="449.4868" y1="970.1484" y2="970.1484"/><text fill="#000000" font-family="sans-serif" font-size="13" lengthAdjust="spacing" textLength="106.8057" x="322.0518" y="965.0825">Forward request</text><polygon fill="#181818" points="656.7168,995.2813,666.7168,999.2813,656.7168,1003.2813,660.7168,999.2813" style="stroke:#181818;stroke-width:1;"/><line style="stroke:#181818;stroke-width:1;" x1="455.4868" x2="662.7168" y1="999.2813" y2="999.2813"/><text fill="#000000" font-family="sans-serif" font-size="13" lengthAdjust="spacing" textLength="102.4067" x="462.4868" y="994.2153">getGraphData()</text><polygon fill="#181818" points="863.9482,1024.4141,873.9482,1028.4141,863.9482,1032.4141,867.9482,1028.4141" style="stroke:#181818;stroke-width:1;"/><line style="stroke:#181818;stroke-width:1;" x1="668.7168" x2="869.9482" y1="1028.4141" y2="1028.4141"/><text fill="#000000" font-family="sans-serif" font-size="13" lengthAdjust="spacing" textLength="183.2314" x="675.7168" y="1023.3481">Fetch graph data for unit_ID</text><polygon fill="#181818" points="679.7168,1053.5469,669.7168,1057.5469,679.7168,1061.5469,675.7168,1057.5469" style="stroke:#181818;stroke-width:1;"/><line style="stroke:#181818;stroke-width:1;stroke-dasharray:2.0,2.0;" x1="673.7168" x2="874.9482" y1="1057.5469" y2="1057.5469"/><text fill="#000000" font-family="sans-serif" font-size="13" lengthAdjust="spacing" textLength="73.29" x="685.7168" y="1052.481">Graph data</text><polygon fill="#181818" points="466.4868,1082.6797,456.4868,1086.6797,466.4868,1090.6797,462.4868,1086.6797" style="stroke:#181818;stroke-width:1;"/><line style="stroke:#181818;stroke-width:1;stroke-dasharray:2.0,2.0;" x1="460.4868" x2="667.7168" y1="1086.6797" y2="1086.6797"/><text fill="#000000" font-family="sans-serif" font-size="13" lengthAdjust="spacing" textLength="128.1465" x="472.4868" y="1081.6138">Response with data</text><polygon fill="#181818" points="326.0518,1111.8125,316.0518,1115.8125,326.0518,1119.8125,322.0518,1115.8125" style="stroke:#181818;stroke-width:1;"/><line style="stroke:#181818;stroke-width:1;stroke-dasharray:2.0,2.0;" x1="320.0518" x2="454.4868" y1="1115.8125" y2="1115.8125"/><text fill="#000000" font-family="sans-serif" font-size="13" lengthAdjust="spacing" textLength="116.4351" x="332.0518" y="1110.7466">Forward response</text><polygon fill="#181818" points="39.2651,1140.9453,29.2651,1144.9453,39.2651,1148.9453,35.2651,1144.9453" style="stroke:#181818;stroke-width:1;"/><line style="stroke:#181818;stroke-width:1;stroke-dasharray:2.0,2.0;" x1="33.2651" x2="314.0518" y1="1144.9453" y2="1144.9453"/><text fill="#000000" font-family="sans-serif" font-size="13" lengthAdjust="spacing" textLength="124.998" x="45.2651" y="1139.8794">Response (200 OK)</text><rect fill="#EEEEEE" height="3" style="stroke:#EEEEEE;stroke-width:1;" width="921.3486" x="0" y="1173.5117"/><line style="stroke:#000000;stroke-width:1;" x1="0" x2="921.3486" y1="1173.5117" y2="1173.5117"/><line style="stroke:#000000;stroke-width:1;" x1="0" x2="921.3486" y1="1176.5117" y2="1176.5117"/><rect fill="#EEEEEE" height="23.1328" style="stroke:#000000;stroke-width:2;" width="154.3403" x="383.5042" y="1162.9453"/><text fill="#000000" font-family="sans-serif" font-size="13" font-weight="bold" lengthAdjust="spacing" textLength="135.8145" x="389.5042" y="1179.0122">Report Generation</text><polygon fill="#181818" points="303.0518,1213.2109,313.0518,1217.2109,303.0518,1221.2109,307.0518,1217.2109" style="stroke:#181818;stroke-width:1;"/><line style="stroke:#181818;stroke-width:1;" x1="28.2651" x2="309.0518" y1="1217.2109" y2="1217.2109"/><text fill="#000000" font-family="sans-serif" font-size="13" lengthAdjust="spacing" textLength="129.0225" x="35.2651" y="1212.145">GET /report/:unit_ID</text><polygon fill="#181818" points="443.4868,1242.3438,453.4868,1246.3438,443.4868,1250.3438,447.4868,1246.3438" style="stroke:#181818;stroke-width:1;"/><line style="stroke:#181818;stroke-width:1;" x1="315.0518" x2="449.4868" y1="1246.3438" y2="1246.3438"/><text fill="#000000" font-family="sans-serif" font-size="13" lengthAdjust="spacing" textLength="106.8057" x="322.0518" y="1241.2778">Forward request</text><polygon fill="#181818" points="656.7168,1271.4766,666.7168,1275.4766,656.7168,1279.4766,660.7168,1275.4766" style="stroke:#181818;stroke-width:1;"/><line style="stroke:#181818;stroke-width:1;" x1="455.4868" x2="662.7168" y1="1275.4766" y2="1275.4766"/><text fill="#000000" font-family="sans-serif" font-size="13" lengthAdjust="spacing" textLength="112.7153" x="462.4868" y="1270.4106">generateReport()</text><polygon fill="#181818" points="863.9482,1300.6094,873.9482,1304.6094,863.9482,1308.6094,867.9482,1304.6094" style="stroke:#181818;stroke-width:1;"/><line style="stroke:#181818;stroke-width:1;" x1="668.7168" x2="869.9482" y1="1304.6094" y2="1304.6094"/><text fill="#000000" font-family="sans-serif" font-size="13" lengthAdjust="spacing" textLength="113.4961" x="675.7168" y="1299.5435">Fetch report data</text><polygon fill="#181818" points="679.7168,1329.7422,669.7168,1333.7422,679.7168,1337.7422,675.7168,1333.7422" style="stroke:#181818;stroke-width:1;"/><line style="stroke:#181818;stroke-width:1;stroke-dasharray:2.0,2.0;" x1="673.7168" x2="874.9482" y1="1333.7422" y2="1333.7422"/><text fill="#000000" font-family="sans-serif" font-size="13" lengthAdjust="spacing" textLength="153.8418" x="685.7168" y="1328.6763">Aggregated report data</text><polygon fill="#181818" points="466.4868,1358.875,456.4868,1362.875,466.4868,1366.875,462.4868,1362.875" style="stroke:#181818;stroke-width:1;"/><line style="stroke:#181818;stroke-width:1;stroke-dasharray:2.0,2.0;" x1="460.4868" x2="667.7168" y1="1362.875" y2="1362.875"/><text fill="#000000" font-family="sans-serif" font-size="13" lengthAdjust="spacing" textLength="138.855" x="472.4868" y="1357.8091">Response with report</text><polygon fill="#181818" points="326.0518,1388.0078,316.0518,1392.0078,326.0518,1396.0078,322.0518,1392.0078" style="stroke:#181818;stroke-width:1;"/><line style="stroke:#181818;stroke-width:1;stroke-dasharray:2.0,2.0;" x1="320.0518" x2="454.4868" y1="1392.0078" y2="1392.0078"/><text fill="#000000" font-family="sans-serif" font-size="13" lengthAdjust="spacing" textLength="116.4351" x="332.0518" y="1386.9419">Forward response</text><polygon fill="#181818" points="39.2651,1417.1406,29.2651,1421.1406,39.2651,1425.1406,35.2651,1421.1406" style="stroke:#181818;stroke-width:1;"/><line style="stroke:#181818;stroke-width:1;stroke-dasharray:2.0,2.0;" x1="33.2651" x2="314.0518" y1="1421.1406" y2="1421.1406"/><text fill="#000000" font-family="sans-serif" font-size="13" lengthAdjust="spacing" textLength="124.998" x="45.2651" y="1416.0747">Response (200 OK)</text><rect fill="#EEEEEE" height="3" style="stroke:#EEEEEE;stroke-width:1;" width="921.3486" x="0" y="1449.707"/><line style="stroke:#000000;stroke-width:1;" x1="0" x2="921.3486" y1="1449.707" y2="1449.707"/><line style="stroke:#000000;stroke-width:1;" x1="0" x2="921.3486" y1="1452.707" y2="1452.707"/><rect fill="#EEEEEE" height="23.1328" style="stroke:#000000;stroke-width:2;" width="146.0249" x="387.6619" y="1439.1406"/><text fill="#000000" font-family="sans-serif" font-size="13" font-weight="bold" lengthAdjust="spacing" textLength="127.499" x="393.6619" y="1455.2075">External Services</text><polygon fill="#181818" points="303.0518,1489.4063,313.0518,1493.4063,303.0518,1497.4063,307.0518,1493.4063" style="stroke:#181818;stroke-width:1;"/><line style="stroke:#181818;stroke-width:1;" x1="28.2651" x2="309.0518" y1="1493.4063" y2="1493.4063"/><text fill="#000000" font-family="sans-serif" font-size="13" lengthAdjust="spacing" textLength="185.2881" x="35.2651" y="1488.3403">POST /external/createServer</text><polygon fill="#181818" points="443.4868,1518.5391,453.4868,1522.5391,443.4868,1526.5391,447.4868,1522.5391" style="stroke:#181818;stroke-width:1;"/><line style="stroke:#181818;stroke-width:1;" x1="315.0518" x2="449.4868" y1="1522.5391" y2="1522.5391"/><text fill="#000000" font-family="sans-serif" font-size="13" lengthAdjust="spacing" textLength="106.8057" x="322.0518" y="1517.4731">Forward request</text><polygon fill="#181818" points="656.7168,1547.6719,666.7168,1551.6719,656.7168,1555.6719,660.7168,1551.6719" style="stroke:#181818;stroke-width:1;"/><line style="stroke:#181818;stroke-width:1;" x1="455.4868" x2="662.7168" y1="1551.6719" y2="1551.6719"/><text fill="#000000" font-family="sans-serif" font-size="13" lengthAdjust="spacing" textLength="94.3262" x="462.4868" y="1546.606">createServer()</text><polygon fill="#181818" points="863.9482,1576.8047,873.9482,1580.8047,863.9482,1584.8047,867.9482,1580.8047" style="stroke:#181818;stroke-width:1;"/><line style="stroke:#181818;stroke-width:1;" x1="668.7168" x2="869.9482" y1="1580.8047" y2="1580.8047"/><text fill="#000000" font-family="sans-serif" font-size="13" lengthAdjust="spacing" textLength="124.6362" x="675.7168" y="1575.7388">Save server details</text><polygon fill="#181818" points="679.7168,1605.9375,669.7168,1609.9375,679.7168,1613.9375,675.7168,1609.9375" style="stroke:#181818;stroke-width:1;"/><line style="stroke:#181818;stroke-width:1;stroke-dasharray:2.0,2.0;" x1="673.7168" x2="874.9482" y1="1609.9375" y2="1609.9375"/><text fill="#000000" font-family="sans-serif" font-size="13" lengthAdjust="spacing" textLength="84.335" x="685.7168" y="1604.8716">Confirmation</text><polygon fill="#181818" points="466.4868,1635.0703,456.4868,1639.0703,466.4868,1643.0703,462.4868,1639.0703" style="stroke:#181818;stroke-width:1;"/><line style="stroke:#181818;stroke-width:1;stroke-dasharray:2.0,2.0;" x1="460.4868" x2="667.7168" y1="1639.0703" y2="1639.0703"/><text fill="#000000" font-family="sans-serif" font-size="13" lengthAdjust="spacing" textLength="157.9741" x="472.4868" y="1634.0044">Response (201 Created)</text><polygon fill="#181818" points="326.0518,1664.2031,316.0518,1668.2031,326.0518,1672.2031,322.0518,1668.2031" style="stroke:#181818;stroke-width:1;"/><line style="stroke:#181818;stroke-width:1;stroke-dasharray:2.0,2.0;" x1="320.0518" x2="454.4868" y1="1668.2031" y2="1668.2031"/><text fill="#000000" font-family="sans-serif" font-size="13" lengthAdjust="spacing" textLength="116.4351" x="332.0518" y="1663.1372">Forward response</text><polygon fill="#181818" points="39.2651,1693.3359,29.2651,1697.3359,39.2651,1701.3359,35.2651,1697.3359" style="stroke:#181818;stroke-width:1;"/><line style="stroke:#181818;stroke-width:1;stroke-dasharray:2.0,2.0;" x1="33.2651" x2="314.0518" y1="1697.3359" y2="1697.3359"/><text fill="#000000" font-family="sans-serif" font-size="13" lengthAdjust="spacing" textLength="157.9741" x="45.2651" y="1692.27">Response (201 Created)</text><polygon fill="#181818" points="303.0518,1722.4688,313.0518,1726.4688,303.0518,1730.4688,307.0518,1726.4688" style="stroke:#181818;stroke-width:1;"/><line style="stroke:#181818;stroke-width:1;" x1="28.2651" x2="309.0518" y1="1726.4688" y2="1726.4688"/><text fill="#000000" font-family="sans-serif" font-size="13" lengthAdjust="spacing" textLength="180.5718" x="35.2651" y="1721.4028">PUT /external/updateServer</text><polygon fill="#181818" points="443.4868,1751.6016,453.4868,1755.6016,443.4868,1759.6016,447.4868,1755.6016" style="stroke:#181818;stroke-width:1;"/><line style="stroke:#181818;stroke-width:1;" x1="315.0518" x2="449.4868" y1="1755.6016" y2="1755.6016"/><text fill="#000000" font-family="sans-serif" font-size="13" lengthAdjust="spacing" textLength="106.8057" x="322.0518" y="1750.5356">Forward request</text><polygon fill="#181818" points="656.7168,1780.7344,666.7168,1784.7344,656.7168,1788.7344,660.7168,1784.7344" style="stroke:#181818;stroke-width:1;"/><line style="stroke:#181818;stroke-width:1;" x1="455.4868" x2="662.7168" y1="1784.7344" y2="1784.7344"/><text fill="#000000" font-family="sans-serif" font-size="13" lengthAdjust="spacing" textLength="98.5791" x="462.4868" y="1779.6685">updateServer()</text><polygon fill="#181818" points="863.9482,1809.8672,873.9482,1813.8672,863.9482,1817.8672,867.9482,1813.8672" style="stroke:#181818;stroke-width:1;"/><line style="stroke:#181818;stroke-width:1;" x1="668.7168" x2="869.9482" y1="1813.8672" y2="1813.8672"/><text fill="#000000" font-family="sans-serif" font-size="13" lengthAdjust="spacing" textLength="171.7549" x="675.7168" y="1808.8013">Update server information</text><polygon fill="#181818" points="679.7168,1839,669.7168,1843,679.7168,1847,675.7168,1843" style="stroke:#181818;stroke-width:1;"/><line style="stroke:#181818;stroke-width:1;stroke-dasharray:2.0,2.0;" x1="673.7168" x2="874.9482" y1="1843" y2="1843"/><text fill="#000000" font-family="sans-serif" font-size="13" lengthAdjust="spacing" textLength="134.0308" x="685.7168" y="1837.9341">Updated server data</text><polygon fill="#181818" points="466.4868,1868.1328,456.4868,1872.1328,466.4868,1876.1328,462.4868,1872.1328" style="stroke:#181818;stroke-width:1;"/><line style="stroke:#181818;stroke-width:1;stroke-dasharray:2.0,2.0;" x1="460.4868" x2="667.7168" y1="1872.1328" y2="1872.1328"/><text fill="#000000" font-family="sans-serif" font-size="13" lengthAdjust="spacing" textLength="124.998" x="472.4868" y="1867.0669">Response (200 OK)</text><polygon fill="#181818" points="326.0518,1897.2656,316.0518,1901.2656,326.0518,1905.2656,322.0518,1901.2656" style="stroke:#181818;stroke-width:1;"/><line style="stroke:#181818;stroke-width:1;stroke-dasharray:2.0,2.0;" x1="320.0518" x2="454.4868" y1="1901.2656" y2="1901.2656"/><text fill="#000000" font-family="sans-serif" font-size="13" lengthAdjust="spacing" textLength="116.4351" x="332.0518" y="1896.1997">Forward response</text><polygon fill="#181818" points="39.2651,1926.3984,29.2651,1930.3984,39.2651,1934.3984,35.2651,1930.3984" style="stroke:#181818;stroke-width:1;"/><line style="stroke:#181818;stroke-width:1;stroke-dasharray:2.0,2.0;" x1="33.2651" x2="314.0518" y1="1930.3984" y2="1930.3984"/><text fill="#000000" font-family="sans-serif" font-size="13" lengthAdjust="spacing" textLength="124.998" x="45.2651" y="1925.3325">Response (200 OK)</text><polygon fill="#181818" points="303.0518,1955.5313,313.0518,1959.5313,303.0518,1963.5313,307.0518,1959.5313" style="stroke:#181818;stroke-width:1;"/><line style="stroke:#181818;stroke-width:1;" x1="28.2651" x2="309.0518" y1="1959.5313" y2="1959.5313"/><text fill="#000000" font-family="sans-serif" font-size="13" lengthAdjust="spacing" textLength="200.2622" x="35.2651" y="1954.4653">DELETE /external/deleteServer</text><polygon fill="#181818" points="443.4868,1984.6641,453.4868,1988.6641,443.4868,1992.6641,447.4868,1988.6641" style="stroke:#181818;stroke-width:1;"/><line style="stroke:#181818;stroke-width:1;" x1="315.0518" x2="449.4868" y1="1988.6641" y2="1988.6641"/><text fill="#000000" font-family="sans-serif" font-size="13" lengthAdjust="spacing" textLength="106.8057" x="322.0518" y="1983.5981">Forward request</text><polygon fill="#181818" points="656.7168,2013.7969,666.7168,2017.7969,656.7168,2021.7969,660.7168,2017.7969" style="stroke:#181818;stroke-width:1;"/><line style="stroke:#181818;stroke-width:1;" x1="455.4868" x2="662.7168" y1="2017.7969" y2="2017.7969"/><text fill="#000000" font-family="sans-serif" font-size="13" lengthAdjust="spacing" textLength="93.7295" x="462.4868" y="2012.731">deleteServer()</text><polygon fill="#181818" points="863.9482,2042.9297,873.9482,2046.9297,863.9482,2050.9297,867.9482,2046.9297" style="stroke:#181818;stroke-width:1;"/><line style="stroke:#181818;stroke-width:1;" x1="668.7168" x2="869.9482" y1="2046.9297" y2="2046.9297"/><text fill="#000000" font-family="sans-serif" font-size="13" lengthAdjust="spacing" textLength="144.7964" x="675.7168" y="2041.8638">Remove server record</text><polygon fill="#181818" points="679.7168,2072.0625,669.7168,2076.0625,679.7168,2080.0625,675.7168,2076.0625" style="stroke:#181818;stroke-width:1;"/><line style="stroke:#181818;stroke-width:1;stroke-dasharray:2.0,2.0;" x1="673.7168" x2="874.9482" y1="2076.0625" y2="2076.0625"/><text fill="#000000" font-family="sans-serif" font-size="13" lengthAdjust="spacing" textLength="84.335" x="685.7168" y="2070.9966">Confirmation</text><polygon fill="#181818" points="466.4868,2101.1953,456.4868,2105.1953,466.4868,2109.1953,462.4868,2105.1953" style="stroke:#181818;stroke-width:1;"/><line style="stroke:#181818;stroke-width:1;stroke-dasharray:2.0,2.0;" x1="460.4868" x2="667.7168" y1="2105.1953" y2="2105.1953"/><text fill="#000000" font-family="sans-serif" font-size="13" lengthAdjust="spacing" textLength="124.998" x="472.4868" y="2100.1294">Response (200 OK)</text><polygon fill="#181818" points="326.0518,2130.3281,316.0518,2134.3281,326.0518,2138.3281,322.0518,2134.3281" style="stroke:#181818;stroke-width:1;"/><line style="stroke:#181818;stroke-width:1;stroke-dasharray:2.0,2.0;" x1="320.0518" x2="454.4868" y1="2134.3281" y2="2134.3281"/><text fill="#000000" font-family="sans-serif" font-size="13" lengthAdjust="spacing" textLength="116.4351" x="332.0518" y="2129.2622">Forward response</text><polygon fill="#181818" points="39.2651,2159.4609,29.2651,2163.4609,39.2651,2167.4609,35.2651,2163.4609" style="stroke:#181818;stroke-width:1;"/><line style="stroke:#181818;stroke-width:1;stroke-dasharray:2.0,2.0;" x1="33.2651" x2="314.0518" y1="2163.4609" y2="2163.4609"/><text fill="#000000" font-family="sans-serif" font-size="13" lengthAdjust="spacing" textLength="124.998" x="45.2651" y="2158.395">Response (200 OK)</text><!--SRC=[pPNBRjim44Nt-ef1LiaYi5DqPS05R4inYhP8OSVT5gmuaOdAf3gaag1VNpwiLoedXkK2NLaMB-yC3-w8B3MAO94Bb2Og61cHYe990nV9Sq6eDSoAuWAO_-qALgeqgFrQUEmkBvGqfF8SoKkQlrrPp0pxmJHwKJoFekaKDXe9PgNPsgP4oenG4gRJA7G9rnzSBnFuUhU-Xn6pib6kCY4Z-zOjXcOcSAleYH47mbybQXE5zqxHz381l_NoAchUEKKydy0tbWlE34Bfsaa9kMk7vJgAvt3zmiQtRDKCB4uaKjHnRBMrGbqegH6UXDc2KJzHDdkg7gipDcS8cy8PNMtFekLs-MuyXhjFpkhz-0Osqe5H97uZl_9GrsYCa9c6Bqoo37SEvTzGbubbglVIKOQcsdOQtPP1B-CL6XBuY52Lx6DRT-xu7eUrjXiCrCBhpLtDY74-Z57Be9VHcht1npu_2DhvENaJZptM3Im8RR1jC0RXQVcuW2s95LjmytmeLvbJk51vgLEE9gKKvll7-EHurLQzx6xHf5lmTSDqFjZvg4hse5pMokDovfNdo9Zbjy92aO4bIgH3tpoFaRnmC3fV1aFLL-25Qk6aFSHcMKQOkHHqb4VH2nlEnIzvDaYIvVPxGOyYjOw7xWpSAqUfpw_Jsslf98njXzUcrwq3HyD4_j_Ey4jMcpQgik03KRKTUb5jlA229QITrJsGlWlNYtcDzfZGrN7v1xT2d7nExfCMC8uv3WFMTZXmU-vKaox2L14_HxZE1UaF]--></g></svg>